<?xml version="1.0" encoding="UTF-8" standalone="no"?>
<!-- Created with Inkscape (http://www.inkscape.org/) -->

<svg
   xmlns:dc="http://purl.org/dc/elements/1.1/"
   xmlns:cc="http://creativecommons.org/ns#"
   xmlns:rdf="http://www.w3.org/1999/02/22-rdf-syntax-ns#"
   xmlns:svg="http://www.w3.org/2000/svg"
   xmlns="http://www.w3.org/2000/svg"
   xmlns:sodipodi="http://sodipodi.sourceforge.net/DTD/sodipodi-0.dtd"
   xmlns:inkscape="http://www.inkscape.org/namespaces/inkscape"
   width="744.09448819"
   height="1052.3622047"
   id="svg2"
   version="1.1"
   inkscape:version="0.48.1 r9760"
   sodipodi:docname="新文件 1">
  <sodipodi:namedview
     id="base"
     pagecolor="#ffffff"
     bordercolor="#666666"
     borderopacity="1.0"
     inkscape:pageopacity="0.0"
     inkscape:pageshadow="2"
     inkscape:zoom="1.979899"
     inkscape:cx="524.47557"
     inkscape:cy="567.43519"
     inkscape:document-units="px"
     inkscape:current-layer="layer1"
     showgrid="false"
     inkscape:window-width="1854"
     inkscape:window-height="1056"
     inkscape:window-x="66"
     inkscape:window-y="24"
     inkscape:window-maximized="1" />
  <defs
     id="defs4" />
  <metadata
     id="metadata7">
    <rdf:RDF>
      <cc:Work
         rdf:about="">
        <dc:format>image/svg+xml</dc:format>
        <dc:type
           rdf:resource="http://purl.org/dc/dcmitype/StillImage" />
        <dc:title></dc:title>
      </cc:Work>
    </rdf:RDF>
  </metadata>
  <g
     inkscape:label="Layer 1"
     inkscape:groupmode="layer"
     id="layer1">
    <g
       id="g3124"
       transform="translate(-37.375644,14.647212)">
      <path
         id="path3120"
         d="m 319.06509,597.1725 c -4.54862,-4.10941 -5.44796,-6.5663 -3.44851,-9.42092 2.39871,-3.42464 6.92693,-2.70582 11.45041,1.81766 8.50869,8.50869 0.95004,15.69079 -8.0019,7.60326 z"
         style="fill:#000000"
         inkscape:connector-curvature="0" />
      <path
         id="path3118"
         d="m 335.87807,600.57785 c -1.18521,-6.5003 -0.92269,-7.38766 2.82714,-9.55638 16.32564,-9.44192 38.07979,-38.65863 45.66845,-61.33458 10.82666,-32.35151 19.51893,-40.66199 46.00905,-43.98821 23.68721,-2.97427 53.89085,9.93405 68.49058,29.27126 12.51442,16.57523 12.83076,37.20933 0.77367,50.46695 -3.33713,3.66942 -7.11753,3.06663 -6.27143,-1 3.24555,-15.59927 -0.11846,-24.7141 -12.92619,-35.02359 -11.90066,-9.57935 -22.45764,-13.09632 -34.83776,-11.60589 -13.47935,1.62276 -19.02798,6.3441 -32.60987,27.74777 -24.00875,37.83535 -43.39667,53.30477 -68.80237,54.89668 -4.5375,0.28432 -8.28208,0.34101 -8.32128,0.12599 z"
         style="fill:#000000"
         inkscape:connector-curvature="0" />
      <path
         id="path3116"
         d="m 328.94935,584.61275 c -1.92501,-1.64607 -5.1875,-3.49901 -7.25,-4.11765 -7.19671,-2.1586 -3.97562,-13.13056 10.38288,-35.36698 16.62396,-25.74483 21.50578,-38.10462 20.65242,-52.28776 -1.6252,-27.01111 -36.11259,-52.02377 -64.53456,-46.80497 -9.16841,1.68349 -10.25074,1.5474 -10.25074,-1.28883 0,-3.74897 12.7239,-11.07992 23.74106,-13.67854 26.09598,-6.15527 62.31329,10.41782 75.94117,34.75077 10.2045,18.22043 11.8789,33.05368 5.90391,52.30206 -7.87711,25.37599 -21.54814,46.23553 -41.40756,63.18053 -8.57992,7.32079 -8.51024,7.30328 -13.17858,3.31137 z"
         style="fill:#000000"
         inkscape:connector-curvature="0" />
      <path
         id="path3114"
         d="m 392.93748,490.96014 c -0.0159,-6.38754 -2.06567,-13.71858 -6.44547,-23.05227 l -3.62306,-7.72098 2.56049,-8.83513 c 6.81068,-23.50074 11.47231,-53.79133 11.50039,-74.72778 l 0.0195,-14.56291 2.80471,-2.68709 c 3.56953,-3.41982 5.93349,-3.38684 10.79524,0.15062 12.89613,9.38334 23.75036,26.81381 29.07199,46.68577 4.68242,17.48508 3.81804,51.55497 -1.75323,69.10381 -0.97504,3.07125 -1.2027,3.16806 -12.70577,5.40311 -13.66391,2.6549 -19.7274,5.09347 -26.96294,10.84378 l -5.25,4.17233 -0.0119,-4.77326 z"
         style="fill:#000000"
         inkscape:connector-curvature="0" />
      <path
         id="path3112"
         d="m 444.03879,479.78859 c -1.19477,-0.77773 -1.00343,-2.95923 1.25074,-14.25995 1.46371,-7.33796 2.66096,-16.09884 2.66055,-19.46861 l -7.3e-4,-6.12685 5.16502,-2.22193 c 11.7684,-5.06263 32.62054,-4.32624 41.45767,1.46408 3.54441,2.32238 3.17002,2.81716 -6.83845,9.03756 -12.46695,7.74836 -28.0999,19.70109 -31.50019,24.08456 -5.31009,6.8455 -5.79662,7.30694 -8.28405,7.85675 -1.375,0.30393 -3.13475,0.1394 -3.91056,-0.36561 z"
         style="fill:#000000"
         inkscape:connector-curvature="0" />
      <path
         id="path3104"
         d="m 371.19692,447.16329 c -3.63529,-3.67732 -5.74504,-7.06479 -8.08184,-12.9764 -3.92568,-9.93112 -7.10936,-16.05227 -12.92568,-24.85173 -5.48339,-8.29576 -4.98725,-9.01677 5.60752,-8.14899 8.42442,0.69 16.46053,3.40277 23.65243,7.98438 8.28982,5.28106 8.14517,4.13673 2.9268,23.1519 -6.0098,21.89916 -5.22783,20.86106 -11.17923,14.84084 z"
         style="fill:#000000"
         inkscape:connector-curvature="0" />
    </g>
    <path
       style="fill:#000000"
       d=""
       id="path3068"
       inkscape:connector-curvature="0" />
  </g>
</svg>
