<?xml version="1.0" encoding="UTF-8" standalone="no"?>
<!-- Created with Inkscape (http://www.inkscape.org/) -->

<svg
   xmlns:dc="http://purl.org/dc/elements/1.1/"
   xmlns:cc="http://creativecommons.org/ns#"
   xmlns:rdf="http://www.w3.org/1999/02/22-rdf-syntax-ns#"
   xmlns:svg="http://www.w3.org/2000/svg"
   xmlns="http://www.w3.org/2000/svg"
   xmlns:sodipodi="http://sodipodi.sourceforge.net/DTD/sodipodi-0.dtd"
   xmlns:inkscape="http://www.inkscape.org/namespaces/inkscape"
   width="744.09448819"
   height="1052.3622047"
   id="svg2"
   version="1.1"
   inkscape:version="0.48.1 r9760"
   sodipodi:docname="banana.svg">
  <sodipodi:namedview
     id="base"
     pagecolor="#ffffff"
     bordercolor="#666666"
     borderopacity="1.0"
     inkscape:pageopacity="0.0"
     inkscape:pageshadow="2"
     inkscape:zoom="8"
     inkscape:cx="378.85191"
     inkscape:cy="601.92459"
     inkscape:document-units="px"
     inkscape:current-layer="layer1"
     showgrid="false"
     inkscape:window-width="1854"
     inkscape:window-height="1056"
     inkscape:window-x="66"
     inkscape:window-y="24"
     inkscape:window-maximized="1" />
  <defs
     id="defs4" />
  <metadata
     id="metadata7">
    <rdf:RDF>
      <cc:Work
         rdf:about="">
        <dc:format>image/svg+xml</dc:format>
        <dc:type
           rdf:resource="http://purl.org/dc/dcmitype/StillImage" />
        <dc:title></dc:title>
      </cc:Work>
    </rdf:RDF>
  </metadata>
  <g
     id="layer1"
     inkscape:groupmode="layer"
     inkscape:label="Layer 1">
    <path
       id="path3120"
       d="m 281.68945,611.81971 c -4.54862,-4.10941 -5.44796,-6.5663 -3.44851,-9.42092 2.39871,-3.42464 6.92693,-2.70582 11.45041,1.81766 8.50869,8.50869 0.95004,15.69079 -8.0019,7.60326 z"
       style="fill:#ffd700"
       inkscape:connector-curvature="0" />
    <path
       id="path3118"
       d="m 298.50243,615.22506 c -1.18521,-6.5003 -0.92269,-7.38766 2.82714,-9.55638 16.32564,-9.44192 38.07979,-38.65863 45.66845,-61.33458 10.82666,-32.35151 19.51893,-40.66199 46.00905,-43.98821 23.68721,-2.97427 53.89085,9.93405 68.49058,29.27126 12.51442,16.57523 12.83076,37.20933 0.77367,50.46695 -3.33713,3.66942 -7.11753,3.06663 -6.27143,-1 3.24555,-15.59927 -0.11846,-24.7141 -12.92619,-35.02359 -11.90066,-9.57935 -22.45764,-13.09632 -34.83776,-11.60589 -13.47935,1.62276 -19.02798,6.3441 -32.60987,27.74777 -24.00875,37.83535 -43.39667,53.30477 -68.80237,54.89668 -4.5375,0.28432 -8.28208,0.34101 -8.32128,0.12599 z"
       style="fill:#ffd700"
       inkscape:connector-curvature="0" />
    <path
       id="path3116"
       d="m 291.57371,599.25996 c -1.92501,-1.64607 -5.1875,-3.49901 -7.25,-4.11765 -7.19671,-2.1586 -3.97562,-13.13056 10.38288,-35.36698 16.62396,-25.74483 21.50578,-38.10462 20.65242,-52.28776 -1.6252,-27.01111 -36.11259,-52.02377 -64.53456,-46.80497 -9.16841,1.68349 -10.25074,1.5474 -10.25074,-1.28883 0,-3.74897 12.7239,-11.07992 23.74106,-13.67854 26.09598,-6.15527 62.31329,10.41782 75.94117,34.75077 10.2045,18.22043 11.8789,33.05368 5.90391,52.30206 -7.87711,25.37599 -21.54814,46.23553 -41.40756,63.18053 -8.57992,7.32079 -8.51024,7.30328 -13.17858,3.31137 z"
       style="fill:#ffd700"
       inkscape:connector-curvature="0" />
    <path
       style="fill:#ffffff;fill-opacity:1"
       d="M 403.28125 425.875 C 403.21728 426.0443 403.16536 426.21317 402.9375 426.375 C 402.62501 426.59693 402.15603 426.82731 401.5625 427.03125 C 400.37544 427.43913 398.68507 427.78527 396.5625 428.09375 C 394.43993 428.40223 391.90028 428.67123 389.09375 428.84375 C 386.28722 429.01627 383.20768 429.09375 379.96875 429.09375 C 376.72982 429.09375 373.65028 429.01627 370.84375 428.84375 C 368.03722 428.67123 365.49757 428.40223 363.375 428.09375 C 361.25243 427.78527 359.53081 427.43913 358.34375 427.03125 C 357.75022 426.82731 357.28124 426.59693 356.96875 426.375 C 356.70827 426.19 356.60767 426.00709 356.5625 425.8125 C 354.53123 439.54182 351.63381 453.67692 348.0625 466 L 345.5 474.84375 L 349.125 482.5625 C 353.5048 491.89619 355.5466 499.20621 355.5625 505.59375 L 355.5625 510.375 L 360.8125 506.21875 C 368.04804 500.46844 374.11734 498.0299 387.78125 495.375 C 399.28432 493.13995 399.52496 493.04 400.5 489.96875 C 405.59016 473.93535 406.68977 444.24161 403.28125 425.875 z "
       id="path4162" />
    <path
       id="path3112"
       d="m 406.66315,494.4358 c -1.19477,-0.77773 -1.00343,-2.95923 1.25074,-14.25995 1.46371,-7.33796 2.66096,-16.09884 2.66055,-19.46861 l -7.3e-4,-6.12685 5.16502,-2.22193 c 11.7684,-5.06263 32.62054,-4.32624 41.45767,1.46408 3.54441,2.32238 3.17002,2.81716 -6.83845,9.03756 -12.46695,7.74836 -28.0999,19.70109 -31.50019,24.08456 -5.31009,6.8455 -5.79662,7.30694 -8.28405,7.85675 -1.375,0.30393 -3.13475,0.1394 -3.91056,-0.36561 z"
       style="fill:#ffd700"
       inkscape:connector-curvature="0" />
    <path
       id="path3104"
       d="m 333.82128,461.8105 c -3.63529,-3.67732 -5.74504,-7.06479 -8.08184,-12.9764 -3.92568,-9.93112 -7.10936,-16.05227 -12.92568,-24.85173 -5.48339,-8.29576 -4.98725,-9.01677 5.60752,-8.14899 8.42442,0.69 16.46053,3.40277 23.65243,7.98438 8.28982,5.28106 8.14517,4.13673 2.9268,23.1519 -6.0098,21.89916 -5.22783,20.86106 -11.17923,14.84084 z"
       style="fill:#ffd700"
       inkscape:connector-curvature="0" />
    <path
       inkscape:connector-curvature="0"
       id="path3068"
       d=""
       style="fill:#ffd700" />
    <path
       style="fill:#fafaf0;fill-opacity:1"
       d="M 403.1875 425.34375 C 403.10741 425.22664 403.09705 425.11332 402.9375 425 C 402.62501 424.77807 402.15603 424.57894 401.5625 424.375 C 400.37544 423.96712 398.68507 423.58973 396.5625 423.28125 C 394.43993 422.97277 391.90028 422.73502 389.09375 422.5625 C 386.28722 422.38998 383.20768 422.28125 379.96875 422.28125 C 376.72982 422.28125 373.65028 422.38998 370.84375 422.5625 C 368.03722 422.73502 365.49757 422.97277 363.375 423.28125 C 361.25243 423.58973 359.53081 423.96712 358.34375 424.375 C 357.75022 424.57894 357.28124 424.77807 356.96875 425 C 356.73119 425.16872 356.68414 425.35445 356.625 425.53125 C 356.61075 425.62814 356.57684 425.71556 356.5625 425.8125 C 356.60767 426.00709 356.70827 426.19 356.96875 426.375 C 357.28124 426.59693 357.75022 426.82731 358.34375 427.03125 C 359.53081 427.43913 361.25243 427.78527 363.375 428.09375 C 365.49757 428.40223 368.03722 428.67123 370.84375 428.84375 C 373.65028 429.01627 376.72982 429.09375 379.96875 429.09375 C 383.20768 429.09375 386.28722 429.01627 389.09375 428.84375 C 391.90028 428.67123 394.43993 428.40223 396.5625 428.09375 C 398.68507 427.78527 400.37544 427.43913 401.5625 427.03125 C 402.15603 426.82731 402.62501 426.59693 402.9375 426.375 C 403.16536 426.21317 403.21728 426.0443 403.28125 425.875 C 403.24742 425.69273 403.22223 425.52374 403.1875 425.34375 z "
       id="path4160" />
  </g>
</svg>
